<svg xmlns="http://www.w3.org/2000/svg" width="24" height="36" viewBox="0 0 24 50">
  <path id="icons8_thermometer" d="M25,0a1,1,0,0,0-.119.006,6.9,6.9,0,0,0-4.016,1.133A4.662,4.662,0,0,0,19,5V9.832a1,1,0,0,0,0,.326V27.685A11.844,11.844,0,0,0,13,38,11.986,11.986,0,0,0,24.895,49.994a1.015,1.015,0,0,0,.219,0A11.986,11.986,0,0,0,37,38a11.844,11.844,0,0,0-6-10.315V10.168a1,1,0,0,0,0-.326V5a4.662,4.662,0,0,0-1.865-3.861A6.9,6.9,0,0,0,25.115.006,1,1,0,0,0,25,0Zm0,2a5.164,5.164,0,0,1,2.965.76A2.458,2.458,0,0,1,29,5V9H21V5a2.458,2.458,0,0,1,1.035-2.24A5.164,5.164,0,0,1,25,2Zm-4,9h8v2H25v2h4v2H27v2h2v2H25v2h4v5.2a1,1,0,0,0,.553.895A10,10,0,1,1,15,38a9.861,9.861,0,0,1,5.447-8.906A1,1,0,0,0,21,28.2Z" transform="translate(-13 0)" fill="#faf7f7"/>
</svg>
