<svg xmlns="http://www.w3.org/2000/svg" width="20.985" height="50" viewBox="0 0 20.985 50">
  <path id="icons8_shoe_print" d="M24.688,0c-4.062,0-6.91,2.82-8.531,6.438A29.447,29.447,0,0,0,14,18.594a36.949,36.949,0,0,0,1.906,9.719,1,1,0,0,0,1.375.563,25.022,25.022,0,0,1,6.969-1.75,22.741,22.741,0,0,1,4.156.344c1.453.226,2.625.469,2.625.469a1,1,0,0,0,1.125-.594,40.267,40.267,0,0,0,2.781-11.312,22.134,22.134,0,0,0-1.594-9.5A11.944,11.944,0,0,0,30.188,2,8.325,8.325,0,0,0,24.688,0Zm0,2a6.141,6.141,0,0,1,4.188,1.531A10.053,10.053,0,0,1,31.5,7.313a20.921,20.921,0,0,1,1.469,8.563,34.708,34.708,0,0,1-2.406,9.938c-.465-.094-.848-.152-1.875-.312a22.394,22.394,0,0,0-4.594-.375,25.186,25.186,0,0,0-6.562,1.563A31.128,31.128,0,0,1,16,18.531,27.737,27.737,0,0,1,17.969,7.25C19.41,4.039,21.523,2,24.688,2Zm7.656,33.25a1.037,1.037,0,0,0-.187.031.461.461,0,0,0-.062.031A30.813,30.813,0,0,1,25.875,36.5a43.3,43.3,0,0,1-7.687-.125,1,1,0,0,0-.789.246.993.993,0,0,0-.336.754,15.828,15.828,0,0,0,1.969,8.438A9.091,9.091,0,0,0,27.188,50a6.543,6.543,0,0,0,5.875-4.156c1.129-2.516,1.3-5.922.25-9.844A1,1,0,0,0,32.344,35.25Zm-.813,2.281a12.685,12.685,0,0,1-.312,7.5A4.367,4.367,0,0,1,27.188,48c-3.379,0-5.246-1.289-6.469-3.25a13.16,13.16,0,0,1-1.562-6.281,38.861,38.861,0,0,0,6.875.031A29.29,29.29,0,0,0,31.531,37.531Z" transform="translate(-13.993)" fill="#fdfcfc"/>
</svg>
