<svg xmlns="http://www.w3.org/2000/svg" width="41" height="41" viewBox="0 0 60 59.999">
  <path id="icons8_Sewing_Tape_Measure" d="M11.018,10A1,1,0,0,0,10,11V25.137a1,1,0,0,0,.879.992l36.5,4.432L16.715,33.2a1,1,0,0,0-.135.022,8.765,8.765,0,0,0-5.293,3.111A6.374,6.374,0,0,0,10,40.121v1.072s0,.009,0,.014V56.918a6.5,6.5,0,0,0,1.287,3.875A8.45,8.45,0,0,0,16.6,63.818q.04.008.08.014l52.2,6.16A1,1,0,0,0,70,69V54.137a1,1,0,0,0-.889-.994l-9.832-1.092L59,52l-.031.016L28.807,48.664l34.358-2.955.012,0a7.24,7.24,0,0,0,5.484-2.936,7.107,7.107,0,0,0,1.219-3.98V23.574a1,1,0,0,0,.121-.49A6.375,6.375,0,0,0,68.713,19.3a8.762,8.762,0,0,0-5.293-3.111,1,1,0,0,0-.1-.018l-52.2-6.162Q11.068,10,11.018,10ZM12,12.125l4.16.492-.119.666.611.654L17,14l.8-.4.139-.772,4.377.518L22.2,13.4l-.158.881.611.654L23,15l.8-.4.158-.881-.189-.2,5.018.594L28.2,14.4l-.158.881.611.654L29,16l.8-.4.158-.881-.5-.529,4.676.551-.1.545.611.654L35,16l.8-.4.117-.649,4.271.5-.148.83.611.654L41,17l.8-.4.158-.881-.057-.061,4.164.49-.025.137.611.654L47,17l.8-.4.043-.24,4.273.5-.076.422.611.654L53,18l.8-.4.094-.525,4.438.523.32.342L59,18l.525-.264,3.477.41a10.331,10.331,0,0,1,1.26.373l.391.418L65,19l.176-.088a5.471,5.471,0,0,1,1.936,1.582,4.429,4.429,0,0,1,.859,2.186l0,0a1.012,1.012,0,0,0-.09.389s0,.008,0,.012A8.116,8.116,0,0,1,67,26.668a4.665,4.665,0,0,1-4.012,2.547h0l-5.949.514a1,1,0,0,0-.125-.025L12,24.252ZM17,16l-.8.4-.158.881.611.654L17,18l.8-.4.158-.881-.611-.654Zm6,1-.8.4-.158.881.611.654L23,19l.8-.4.158-.881-.611-.654Zm6,1-.8.4-.158.881.611.654L29,20l.8-.4.158-.881-.611-.654Zm6,0-.8.4-.158.881.611.654L35,20l.8-.4.158-.881-.611-.654Zm6,1-.8.4-.158.881.611.654L41,21l.8-.4.158-.881-.611-.654Zm6,0-.8.4-.158.881.611.654L47,21l.8-.4.158-.881-.611-.654Zm6,1-.8.4-.158.881.611.654L53,22l.8-.4.158-.881-.611-.654Zm6,0-.8.4-.158.881.611.654L59,22l.8-.4.158-.881-.611-.654Zm6,1-.8.4-.158.881.611.654L65,23l.8-.4.158-.881-.611-.654ZM29,22l-.8.4-.158.881.611.654L29,24l.8-.4.158-.881-.611-.654Zm18,1-.8.4-.158.881.611.654L47,25l.8-.4.158-.881-.611-.654Zm18,2-.8.4-.158.881.611.654L65,27l.8-.4.158-.881-.611-.654Zm2.879,3.615V38.791a5.309,5.309,0,0,1-.865,2.848,5.047,5.047,0,0,1-4.027,2.076l0,0L18.617,47.533l-1.629-.182a5.685,5.685,0,0,1-4.039-2.77A7.215,7.215,0,0,1,12,41.207V40.121a4.42,4.42,0,0,1,.889-2.588,6.183,6.183,0,0,1,3.273-2.121l.49.525L17,36l.8-.4.088-.486,4.559-.393.2.219L23,35l.791-.4,4.258-.367-.008.047.611.654L29,35l.8-.4.094-.521,4.523-.389.234.25L35,34l.8-.4.006-.031,4.25-.365-.016.082.611.654L41,34l.8-.4.1-.557,4.488-.387.264.283L47,33l.8-.4.012-.064,4.25-.367-.021.117.611.654L53,33l.8-.4.105-.59,4.453-.385.293.315L59,32l.8-.4.018-.1,3.346-.289.01,0a6.968,6.968,0,0,0,1.455-.295l.023.025L65,31l.8-.4.039-.217A7.3,7.3,0,0,0,67.879,28.615ZM65,33l-.8.4-.158.881.611.654L65,35l.8-.4.158-.881-.611-.654Zm-6,1-.8.4-.158.881.611.654L59,36l.8-.4.158-.881-.611-.654ZM47,35l-.8.4-.158.881.611.654L47,37l.8-.4.158-.881-.611-.654Zm6,0-.8.4-.158.881.611.654L53,37l.8-.4.158-.881-.611-.654ZM35,36l-.8.4-.158.881.611.654L35,38l.8-.4.158-.881-.611-.654Zm6,0-.8.4-.158.881.611.654L41,38l.8-.4.158-.881-.611-.654ZM23,37l-.8.4-.158.881.611.654L23,39l.8-.4.158-.881-.611-.654Zm6,0-.8.4-.158.881.611.654L29,39l.8-.4.158-.881-.611-.654ZM17,38l-.8.4-.158.881.611.654L17,40l.8-.4.158-.881-.611-.654Zm36,1-.8.4-.158.881.611.654L53,41l.8-.4.158-.881-.611-.654ZM35,40l-.8.4-.158.881.611.654L35,42l.8-.4.158-.881-.611-.654ZM17,42l-.8.4-.158.881.611.654L17,44l.8-.4.158-.881-.611-.654Zm-5,4.459a7.661,7.661,0,0,0,4.059,2.723l-.018.1.611.654L17,50l.8-.4.012-.07a1,1,0,0,0,.4.049l.389-.033,3.5.389-.062.352.611.654L23,51l.8-.4.084-.469,4.277.477-.121.678.611.654L29,52l.8-.4.143-.795,4.1.455,0,.025.611.654L35,52l.8-.4.025-.141,4.277.475-.062.352.611.654L41,53l.8-.4.084-.469,4.477.5.291.311L47,53l.492-.248,4.553.506,0,.025.611.654L53,54l.8-.4.025-.141,10.535,1.17.291.311L65,55l.492-.248L68,55.031V67.875L16.986,61.854a6.345,6.345,0,0,1-4.1-2.258A4.528,4.528,0,0,1,12,56.918V46.459ZM17,52l-.8.4-.158.881.611.654L17,54l.8-.4.158-.881-.611-.654Zm6,1-.8.4-.158.881.611.654L23,55l.8-.4.158-.881-.611-.654Zm6,1-.8.4-.158.881.611.654L29,56l.8-.4.158-.881-.611-.654Zm6,0-.8.4-.158.881.611.654L35,56l.8-.4.158-.881-.611-.654Zm6,1-.8.4-.158.881.611.654L41,57l.8-.4.158-.881-.611-.654Zm6,0-.8.4-.158.881.611.654L47,57l.8-.4.158-.881-.611-.654Zm6,1-.8.4-.158.881.611.654L53,58l.8-.4.158-.881-.611-.654Zm6,0-.8.4-.158.881.611.654L59,58l.8-.4.158-.881-.611-.654Zm6,1-.8.4-.158.881.611.654L65,59l.8-.4.158-.881-.611-.654ZM29,58l-.8.4-.158.881.611.654L29,60l.8-.4.158-.881-.611-.654Zm18,1-.8.4-.158.881.611.654L47,61l.8-.4.158-.881-.611-.654Zm18,2-.8.4-.158.881.611.654L65,63l.8-.4.158-.881-.611-.654Z" transform="translate(-10 -10)" fill="#0f0202"/>
</svg>
