<svg xmlns="http://www.w3.org/2000/svg" width="36" height="36" viewBox="0 0 50 50">
  <path id="icons8_ship_wheel" d="M25,0a2,2,0,0,0-2,2,6.562,6.562,0,0,0,1,2.406V7h2V4.406A6.562,6.562,0,0,0,27,2,2,2,0,0,0,25,0ZM8.75,6.75a1.985,1.985,0,0,0-1.437,3.406,6.572,6.572,0,0,0,2.406,1c.008,0,.023,0,.031,0l1.813,1.813,1.406-1.406L11.156,9.75c0-.008,0-.023,0-.031a6.572,6.572,0,0,0-1-2.406A1.952,1.952,0,0,0,8.75,6.75Zm32.5,0a1.952,1.952,0,0,0-1.406.563,6.727,6.727,0,0,0-1,2.438l-1.812,1.813,1.406,1.406,1.844-1.812a6.571,6.571,0,0,0,2.406-1A1.985,1.985,0,0,0,41.25,6.75ZM25,8A17,17,0,1,0,42,25,17.013,17.013,0,0,0,25,8Zm0,2A15,15,0,1,1,10,25,14.984,14.984,0,0,1,25,10Zm0,1A14,14,0,1,0,39,25,14.017,14.017,0,0,0,25,11Zm-1.219,2.063c.074-.008.145.008.219,0V17h2V13.063a11.939,11.939,0,0,1,6.75,2.781l-2.812,2.781,1.438,1.438,2.781-2.812A11.94,11.94,0,0,1,36.938,24H33v2h3.938a11.94,11.94,0,0,1-2.781,6.75l-2.781-2.812-1.437,1.438,2.813,2.781A11.94,11.94,0,0,1,26,36.938V33H24v3.938a11.94,11.94,0,0,1-6.75-2.781l2.813-2.781-1.437-1.437L15.844,32.75A11.939,11.939,0,0,1,13.063,26H17V24H13.063a11.939,11.939,0,0,1,2.781-6.75l2.781,2.813,1.438-1.437L17.25,15.844A11.949,11.949,0,0,1,23.781,13.063ZM25,18a7,7,0,1,0,7,7A7.013,7.013,0,0,0,25,18Zm0,2a5,5,0,1,1-5,5A4.985,4.985,0,0,1,25,20ZM2,23a2,2,0,0,0,0,4,6.562,6.562,0,0,0,2.406-1H7V24H4.406A6.562,6.562,0,0,0,2,23Zm46,0a6.561,6.561,0,0,0-2.406,1H43v2h2.594A6.561,6.561,0,0,0,48,27a2,2,0,0,0,0-4ZM11.563,37.031,9.719,38.844a6.568,6.568,0,0,0-2.406,1,2.011,2.011,0,0,0,2.844,2.844,6.73,6.73,0,0,0,1-2.437l1.813-1.812Zm26.875,0-1.406,1.406,1.813,1.844a6.568,6.568,0,0,0,1,2.406,2.011,2.011,0,0,0,2.844-2.844,6.568,6.568,0,0,0-2.406-1ZM24,43v2.594A6.561,6.561,0,0,0,23,48a2,2,0,0,0,4,0,6.561,6.561,0,0,0-1-2.406V43Z" fill="#0e0808"/>
</svg>
