<svg xmlns="http://www.w3.org/2000/svg" width="41" height="41" viewBox="0 0 49.885 49.906">
  <path id="icons8_warm" d="M42.063.031A7.839,7.839,0,0,0,36.5,2.344c-.758.762-25.281,25.281-25.906,25.906-1.328,1.328-1.6,3.254-1.906,5S8,36.563,7.469,37.094c-.355.355-.969,1-1.469,1.5-.02.02-.074.012-.094.031a.473.473,0,0,0-.062.063.987.987,0,0,0-.156.156A1.264,1.264,0,0,0,5.594,39c-.664.664-1.238,1.207-1.906,1.875-1.324,1.324-2.328,2.324-2.5,2.5v.031a3.834,3.834,0,0,0,5.438,5.406l4.281-4.281a1,1,0,0,0,.625-.594.879.879,0,0,0,.031-.094c.547-.547.969-.937,1.344-1.312.5-.5,2.063-.906,3.813-1.219s3.734-.578,5.063-1.906c.574-.578,25.105-25.137,25.875-25.906A7.891,7.891,0,0,0,42.063.031Zm0,2A5.891,5.891,0,0,1,46.25,12.094C45.441,12.9,20.98,37.359,20.344,38s-2.234,1.035-3.969,1.344-3.609.484-4.875,1.75l-1,1L9.906,41.5,35.063,16.344a1,1,0,1,0-1.406-1.406L8.5,40.094,7.906,39.5l1-1c1.277-1.277,1.445-3.172,1.75-4.906s.7-3.293,1.344-3.938h.031l.594-.594.656.656a1.016,1.016,0,0,0,1.438-1.437l-.656-.656,2.563-2.562,1.656,1.656a1.016,1.016,0,0,0,1.438-1.437l-1.656-1.656,2.563-2.562.656.656a1.016,1.016,0,0,0,1.438-1.437l-.656-.656,2.563-2.562,1.656,1.656a1.016,1.016,0,0,0,1.438-1.437l-1.656-1.656c1.16-1.16,1.484-1.481,2.563-2.562l.656.656a1.016,1.016,0,0,0,1.438-1.437l-.656-.656c1-1,1.777-1.773,2.563-2.562l1.656,1.656a1.016,1.016,0,1,0,1.438-1.438L34.063,7.625l2.563-2.562.656.656a1.016,1.016,0,0,0,1.438-1.437l-.656-.656A5.816,5.816,0,0,1,42.063,2.031ZM6.5,40.906,9.094,43.5C7.4,45.2,5.348,47.277,5.219,47.406H5.188a1.849,1.849,0,0,1-2.594,0,1.816,1.816,0,0,1,0-2.594v-.031c-.039.039,1.2-1.168,2.531-2.5Z" transform="translate(-0.077 -0.031)" fill="#0f0202"/>
</svg>
