<svg xmlns="http://www.w3.org/2000/svg" width="46.026" height="35" viewBox="0 0 46.026 35.028">
  <path id="icons8_speed_1" d="M24.984,6.984a.984.984,0,0,0-.184.023,22.892,22.892,0,0,0-11.5,3.2,1.187,1.187,0,0,0-.234.137,23.138,23.138,0,0,0-8.219,8.594.983.983,0,0,0-.125.227A22.84,22.84,0,0,0,2.008,29.8a.959.959,0,0,0,0,.395,21.7,21.7,0,0,0,3.137,11.34A1,1,0,0,0,7,40.938l.047.613L10.8,39.375a.983.983,0,0,0,.519-.867A1,1,0,0,0,9.8,37.645L6.461,39.578A19.518,19.518,0,0,1,4.031,31H8a1,1,0,1,0,0-2H4.031a20.9,20.9,0,0,1,2.063-8.105c.563.3,1.461.789,3.48,1.887a1,1,0,1,0,.953-1.762c-2.019-1.094-2.914-1.578-3.48-1.883a21.084,21.084,0,0,1,6.3-6.609l2.059,3.426a1,1,0,1,0,1.715-1.031L15.063,11.5A20.928,20.928,0,0,1,24,9.031V13a1,1,0,1,0,2,0V9.031a20.92,20.92,0,0,1,8.113,2.047l-1.895,3.5a1,1,0,1,0,1.762.953l1.891-3.492a21.05,21.05,0,0,1,6.6,6.313l-3.426,2.059a1,1,0,1,0,1.031,1.715L43.5,20.063A20.929,20.929,0,0,1,45.969,29H42a1,1,0,1,0,0,2h3.969a19.568,19.568,0,0,1-2.426,8.578L40.2,37.645a1,1,0,0,0-1.523.863.983.983,0,0,0,.52.867l3.754,2.176L43,40.938a1,1,0,0,0,1.855.594A21.711,21.711,0,0,0,48,30.2a1.139,1.139,0,0,0,0-.4,22.9,22.9,0,0,0-3.211-11.52.893.893,0,0,0-.113-.207h0s0,0-.008-.008a23.123,23.123,0,0,0-8.574-8.211,1,1,0,0,0-.277-.148,22.85,22.85,0,0,0-10.617-2.7A.909.909,0,0,0,24.984,6.984Zm11.574,15.2a.991.991,0,0,0-.543.148l-9.109,5.383A2.951,2.951,0,0,0,25,27a3,3,0,1,0,3,3,3.15,3.15,0,0,0-.059-.578l9.09-5.375a1,1,0,0,0-.473-1.867ZM25,29a.974.974,0,0,1,.762.363.927.927,0,0,0,.172.285A1.04,1.04,0,0,1,26,30a1,1,0,1,1-1-1Zm-6,9a1,1,0,1,0,0,2H31a1,1,0,1,0,0-2Z" transform="translate(-1.987 -6.984)" fill="#fff4f4"/>
</svg>
