<svg xmlns="http://www.w3.org/2000/svg" width="36" height="36" viewBox="0 0 49.719 45.719">
  <path id="icons8_gender" d="M37,2V4h9.563l-8.531,8.531A11.008,11.008,0,0,0,20,21a11.086,11.086,0,0,0,6.688,10.094A7.619,7.619,0,0,0,27,29a8.9,8.9,0,1,1,4,1h-.094c-.1.7-.211,1.3-.312,2H31a11.008,11.008,0,0,0,8.469-18.031L48,5.438V15h2V2ZM19,18a11.008,11.008,0,0,0-8.469,18.031L6,40.563,1.719,36.281.281,37.719,4.563,42,.281,46.281l1.438,1.438L6,43.438l4.281,4.281,1.438-1.437L7.438,42l4.531-4.531A11.008,11.008,0,0,0,30,29a11.086,11.086,0,0,0-6.687-10.094A6.616,6.616,0,0,0,23,21a8.9,8.9,0,1,1-4-1h.094c.1-.7.211-1.3.313-2Z" transform="translate(-0.281 -2)" fill="#fdfcfc"/>
</svg>
